<?xml version="1.0" encoding="UTF-8" standalone="no"?>
<svg
   xmlns:dc="http://purl.org/dc/elements/1.1/"
   xmlns:cc="http://creativecommons.org/ns#"
   xmlns:rdf="http://www.w3.org/1999/02/22-rdf-syntax-ns#"
   xmlns:svg="http://www.w3.org/2000/svg"
   xmlns="http://www.w3.org/2000/svg"
   xmlns:xlink="http://www.w3.org/1999/xlink"
   version="1.1"
   id="svg2"
   viewBox="0 0 330.29749 309.43988"
   height="309.43988"
   width="330.29749">
  <metadata
     id="metadata90">
    <rdf:RDF>
      <cc:Work
         rdf:about="">
        <dc:format>image/svg+xml</dc:format>
        <dc:type
           rdf:resource="http://purl.org/dc/dcmitype/StillImage" />
        <dc:title></dc:title>
      </cc:Work>
    </rdf:RDF>
  </metadata>
  <defs
     id="defs88">
    <linearGradient
       y2="-100.935"
       x2="63.919998"
       y1="154.565"
       x1="63.919998"
       gradientUnits="userSpaceOnUse"
       id="linearGradient4332"
       xlink:href="#b" />
    <linearGradient
       y2="56.166"
       x2="56.166"
       y1="-26.333"
       x1="-26.333"
       gradientUnits="userSpaceOnUse"
       id="linearGradient4334"
       xlink:href="#a" />
    <linearGradient
       y2="111.065"
       x2="204.007"
       y1="25.421"
       x1="43.022999"
       gradientUnits="userSpaceOnUse"
       id="linearGradient4336"
       xlink:href="#d" />
    <linearGradient
       y2="10.651"
       x2="74.82"
       y1="10.651"
       x1="-56.222"
       gradientUnits="userSpaceOnUse"
       id="linearGradient4338"
       xlink:href="#e" />
    <radialGradient
       r="34.736"
       cy="118.249"
       cx="108.467"
       gradientUnits="userSpaceOnUse"
       id="radialGradient4340"
       xlink:href="#f" />
    <linearGradient
       y2="135.79401"
       x2="95.087997"
       y1="98.181"
       x1="104.017"
       gradientUnits="userSpaceOnUse"
       id="linearGradient4342"
       xlink:href="#g" />
    <linearGradient
       y2="101.888"
       x2="96.103996"
       y1="88.093002"
       x1="82.308998"
       gradientUnits="userSpaceOnUse"
       id="linearGradient4344"
       xlink:href="#a" />
    <linearGradient
       y2="-100.935"
       x2="63.919998"
       y1="154.565"
       x1="63.919998"
       gradientUnits="userSpaceOnUse"
       id="linearGradient4346"
       xlink:href="#b" />
    <linearGradient
       y2="111.065"
       x2="204.007"
       y1="25.421"
       x1="43.022999"
       gradientUnits="userSpaceOnUse"
       id="linearGradient4348"
       xlink:href="#d" />
    <linearGradient
       y2="10.651"
       x2="74.82"
       y1="10.651"
       x1="-56.222"
       gradientUnits="userSpaceOnUse"
       id="linearGradient4350"
       xlink:href="#e" />
    <radialGradient
       r="34.736"
       cy="118.249"
       cx="108.467"
       gradientUnits="userSpaceOnUse"
       id="radialGradient4352"
       xlink:href="#f" />
    <linearGradient
       y2="135.79401"
       x2="95.087997"
       y1="98.181"
       x1="104.017"
       gradientUnits="userSpaceOnUse"
       id="linearGradient4354"
       xlink:href="#g" />
    <linearGradient
       y2="-100.935"
       x2="63.919998"
       y1="154.565"
       x1="63.919998"
       gradientUnits="userSpaceOnUse"
       id="linearGradient4402"
       xlink:href="#b" />
    <linearGradient
       y2="56.166"
       x2="56.166"
       y1="-26.333"
       x1="-26.333"
       gradientUnits="userSpaceOnUse"
       id="linearGradient4404"
       xlink:href="#a" />
    <linearGradient
       y2="111.065"
       x2="204.007"
       y1="25.421"
       x1="43.022999"
       gradientUnits="userSpaceOnUse"
       id="linearGradient4406"
       xlink:href="#d" />
    <linearGradient
       y2="10.651"
       x2="74.82"
       y1="10.651"
       x1="-56.222"
       gradientUnits="userSpaceOnUse"
       id="linearGradient4408"
       xlink:href="#e" />
    <radialGradient
       r="34.736"
       cy="118.249"
       cx="108.467"
       gradientUnits="userSpaceOnUse"
       id="radialGradient4410"
       xlink:href="#f" />
    <linearGradient
       y2="135.79401"
       x2="95.087997"
       y1="98.181"
       x1="104.017"
       gradientUnits="userSpaceOnUse"
       id="linearGradient4412"
       xlink:href="#g" />
    <linearGradient
       y2="101.888"
       x2="96.103996"
       y1="88.093002"
       x1="82.308998"
       gradientUnits="userSpaceOnUse"
       id="linearGradient4414"
       xlink:href="#a" />
  </defs>
  <linearGradient
     gradientUnits="userSpaceOnUse"
     y2="-100.935"
     y1="154.565"
     x2="63.919998"
     x1="63.919998"
     id="b">
    <stop
       id="stop5"
       stop-color="#fff"
       offset="0" />
    <stop
       id="stop7"
       stop-color="#f1f1f1"
       offset=".258" />
    <stop
       id="stop9"
       stop-color="#cecece"
       offset=".74" />
    <stop
       id="stop11"
       stop-color="#c4c4c4"
       offset=".86" />
  </linearGradient>
  <linearGradient
     id="a">
    <stop
       id="stop14"
       stop-color="#b3b3b3"
       offset="0" />
    <stop
       id="stop16"
       stop-color="#828282"
       offset="1" />
  </linearGradient>
  <linearGradient
     xlink:href="#a"
     gradientUnits="userSpaceOnUse"
     y2="56.166"
     y1="-26.333"
     x2="56.166"
     x1="-26.333"
     id="c" />
  <linearGradient
     gradientUnits="userSpaceOnUse"
     y2="111.065"
     y1="25.421"
     x2="204.007"
     x1="43.022999"
     id="d">
    <stop
       id="stop20"
       stop-color="#fff"
       offset="0" />
    <stop
       id="stop22"
       stop-color="#e7e7e7"
       offset=".503" />
    <stop
       id="stop24"
       stop-color="#d4d4d4"
       offset="1" />
  </linearGradient>
  <linearGradient
     gradientUnits="userSpaceOnUse"
     y2="10.651"
     y1="10.651"
     x2="74.82"
     x1="-56.222"
     id="e">
    <stop
       id="stop27"
       stop-color="#fff"
       offset="0" />
    <stop
       id="stop29"
       stop-color="red"
       offset="1" />
  </linearGradient>
  <radialGradient
     gradientUnits="userSpaceOnUse"
     r="34.736"
     cy="118.249"
     cx="108.467"
     id="f">
    <stop
       id="stop32"
       offset="0" />
    <stop
       id="stop34"
       offset="1" />
  </radialGradient>
  <linearGradient
     gradientUnits="userSpaceOnUse"
     y2="135.79401"
     y1="98.181"
     x2="95.087997"
     x1="104.017"
     id="g">
    <stop
       id="stop37"
       stop-color="#fff"
       offset="0" />
    <stop
       id="stop39"
       stop-color="#ccc"
       offset="1" />
  </linearGradient>
  <linearGradient
     xlink:href="#a"
     gradientUnits="userSpaceOnUse"
     y2="101.888"
     y1="88.093002"
     x2="96.103996"
     x1="82.308998"
     id="h" />
  <g
     transform="matrix(0.96592583,-0.25881905,0.25881905,0.96592583,10.731056,181.96623)"
     id="g4262">
    <path
       style="fill:#ffffff"
       d="m 121.164,1.052 -114.328,0 0,125.896 80.701,0 33.627,-33.627 z"
       id="path42" />
    <path
       style="fill:url(#linearGradient4346)"
       d="m 117.734,4.019 -107.468,0 -0.16,122.654 76.457,0 31.172,-31.252 0,-91.402 z"
       id="path44" />
    <path
       style="fill:url(#c)"
       d="m 121.164,0.552 -114.828,0 0,126.896 81.408,0 33.92,-33.92 0,-92.976 z m -0.5,1 0,91.562 c -0.289,0.289 -33.045,33.045 -33.334,33.334 -0.41,0 -79.01,0 -79.994,0 0,-0.988 0,-123.909 0,-124.896 0.986,0 112.342,0 113.328,0 z"
       id="path46" />
    <path
       style="fill:url(#linearGradient4348)"
       d="m 118.006,15.223 0,-11.283 -107.807,0 -0.096,65.34 c 9.975,4.547 21.151,7.096 32.954,7.096 37.345,0 68.398,-27.5 74.949,-61.153 z"
       id="path48" />
    <path
       style="fill:none"
       d="m 72.158,83.212 0,-12.683 c -8.568,3.576 -17.923,5.638 -27.732,5.815 l 0,6.867 27.732,0 z"
       id="path50" />
    <path
       style="fill:none"
       d="m 59.562,44.832 c -3.404,2.08 -6.689,6.015 -9.764,11.694 -3.102,5.73 -4.674,11.508 -4.674,17.173 0,3.169 0.682,4.568 1.254,5.186 0.738,0.798 1.577,1.138 2.804,1.138 3.207,0 6.845,-1.571 10.815,-4.67 4.09,-3.188 7.158,-7.917 9.12,-14.059 0,0 5.252,-16.324 6.19,-19.24 -1.517,-0.177 -2.854,-0.296 -3.85,-0.296 -4.554,0 -8.556,1.034 -11.895,3.074 z"
       id="path52" />
    <path
       style="fill:none"
       d="m 42.301,76.366 c 0.279,1.989 0.896,3.499 1.878,4.559 1.307,1.411 2.944,2.098 5.004,2.098 3.891,0 8.151,-1.785 12.66,-5.305 1.867,-1.455 3.529,-3.201 5.002,-5.197 -7.485,2.487 -15.479,3.855 -23.787,3.855 -0.253,0 -0.504,-0.008 -0.757,-0.01 z"
       id="path54" />
    <path
       style="fill:url(#linearGradient4350)"
       d="m 117.397,17.023 -107.384,0 0,-12.744 107.385,0 0,12.744 z"
       id="path56" />
    <path
       style="opacity:0.1;fill:url(#radialGradient4352)"
       d="m 85.191,90.976 0,35.754 1.793,0 33.639,-33.639 0,-2.115 z"
       id="path58" />
    <path
       style="fill:#ffffff"
       d="m 87.537,126.948 33.627,-33.627 -33.627,0 z"
       id="path60" />
    <path
       style="fill:url(#linearGradient4354)"
       d="m 89.865,125.056 29.594,-29.592 -29.594,0 z"
       id="path62" />
    <path
       style="fill:url(#h)"
       d="m 87.537,92.821 c -0.277,0 -0.5,0.223 -0.5,0.5 l 0,33.627 c 0,0.203 0.121,0.385 0.309,0.463 0.186,0.076 0.402,0.033 0.545,-0.109 l 33.627,-33.627 c 0.143,-0.145 0.186,-0.359 0.109,-0.545 -0.078,-0.188 -0.26,-0.309 -0.463,-0.309 z m 32.42,1 c -1.58,1.578 -30.342,30.34 -31.92,31.92 0,-2.209 0,-30.986 0,-31.92 z"
       id="path64" />
    <g
       style="opacity:0.35"
       id="g66">
      <path
         style="fill:none"
         d="m 60.326,29.604 c -8.263,7.357 27.625,72.342 36.217,55.654 9.664,-18.773 -86.067,20.969 -65.423,26.348 24.189,6.301 44.61,-95.719 29.206,-82.002 z"
         id="path68" />
      <path
         style="opacity:0.35"
         d="m 58.713,28.594 c -6.105,6.004 0.619,18.865 3.332,24.984 4.958,11.187 11.438,22.806 20.215,31.464 2.578,2.545 5.771,5.248 9.609,5.158 3.725,-0.084 6.83,-3.348 7.814,-6.746 2.059,-7.121 -9.295,-5.322 -12.873,-4.686 -10.656,1.891 -21.09,5.992 -30.992,10.246 -9.019,3.877 -18.561,8.207 -26.104,14.617 -1.979,1.682 -4.291,4.051 -4.186,6.842 0.102,2.699 4.053,3.512 6.081,3.611 9.033,0.439 15.488,-8.787 19.479,-15.633 C 59.937,83.269 64.782,64.9 67.34,47.633 c 0.836,-5.661 1.93,-12.352 0.383,-17.991 -1.338,-4.888 -5.891,-3.731 -9.01,-1.048 -3.028,2.607 0.926,4.001 3.225,2.023 0.556,-0.48 -0.585,-0.188 -0.252,0.043 0.414,0.287 0.818,1.743 0.975,2.562 0.741,3.895 0.285,8.062 -0.142,11.963 -1.322,12.122 -4.39,24.218 -8.435,35.702 -3.197,9.078 -7.412,21.291 -15.53,27.248 -2.117,1.553 -5.042,2.209 -7.343,0.598 -0.438,-0.307 -0.364,-0.635 -0.245,-0.904 0.284,-0.641 1.314,-1.615 2.278,-2.434 7.445,-6.328 17.506,-10.311 26.423,-14 9.249,-3.83 19.304,-7.818 29.349,-8.809 1.711,-0.17 5.172,-0.361 5.504,1.084 0.127,0.549 -0.221,1.635 -0.689,2.141 -0.443,0.482 0.494,-0.055 -0.133,-0.041 -0.684,0.018 -1.447,-0.385 -2.037,-0.684 C 87.354,82.91 84.087,78.533 81.249,74.781 77.298,69.558 73.919,63.893 70.853,58.113 67.921,52.589 65.298,46.842 63.409,40.873 62.69,38.6 62.12,36.269 61.855,33.896 c -0.086,-0.774 -0.107,-1.545 -0.027,-2.318 0.051,-0.496 0.561,-1.406 0.11,-0.96 2.834,-2.789 -1.026,-4.185 -3.225,-2.024 z"
         id="path70" />
    </g>
    <path
       style="fill:none"
       d="m 57.035,28.072 c -8.263,7.358 27.627,72.343 36.219,55.654 9.664,-18.771 -86.068,20.971 -65.422,26.348 24.187,6.3 44.609,-95.72 29.203,-82.002 z"
       id="path72" />
    <path
       style="fill:#f8310e"
       d="m 55.423,27.061 c -6.105,6.004 0.619,18.867 3.332,24.986 4.958,11.185 11.437,22.804 20.214,31.464 2.58,2.543 5.771,5.246 9.609,5.156 3.727,-0.084 6.832,-3.348 7.814,-6.746 2.061,-7.119 -9.291,-5.32 -12.873,-4.686 -10.654,1.891 -21.089,5.993 -30.989,10.246 -9.02,3.877 -18.562,8.209 -26.104,14.617 -1.979,1.682 -4.291,4.051 -4.185,6.842 0.101,2.699 4.053,3.512 6.081,3.611 9.033,0.439 15.487,-8.785 19.479,-15.633 8.849,-15.18 13.695,-33.551 16.251,-50.818 0.838,-5.66 1.931,-12.352 0.384,-17.991 -1.34,-4.889 -5.892,-3.733 -9.011,-1.047 -3.029,2.607 0.925,4 3.224,2.021 0.556,-0.479 -0.586,-0.187 -0.251,0.044 0.413,0.286 0.819,1.745 0.974,2.562 0.741,3.896 0.285,8.063 -0.142,11.963 -1.322,12.124 -4.39,24.218 -8.434,35.704 -3.196,9.076 -7.412,21.289 -15.53,27.248 -2.116,1.553 -5.042,2.207 -7.343,0.596 -0.438,-0.305 -0.365,-0.633 -0.246,-0.904 0.283,-0.641 1.314,-1.613 2.278,-2.432 7.446,-6.328 17.506,-10.311 26.425,-14.002 9.25,-3.83 19.301,-7.818 29.35,-8.809 1.709,-0.17 5.17,-0.359 5.502,1.084 0.127,0.549 -0.221,1.635 -0.688,2.143 -0.445,0.48 0.492,-0.057 -0.135,-0.043 -0.684,0.018 -1.447,-0.385 -2.037,-0.684 C 84.067,81.377 80.798,77 77.96,73.25 74.009,68.025 70.63,62.36 67.564,56.582 64.634,51.057 62.008,45.311 60.121,39.342 59.402,37.067 58.831,34.737 58.567,32.364 58.481,31.592 58.46,30.819 58.54,30.046 c 0.052,-0.496 0.561,-1.405 0.11,-0.961 2.834,-2.787 -1.026,-4.183 -3.224,-2.021 z"
       id="path74" />
    <g
       style="fill:#ffffff"
       id="g76">
      <path
         d="m 13.097,15.115 0,-9.375 3.038,0 c 1.151,0 1.902,0.047 2.251,0.141 0.537,0.141 0.987,0.447 1.35,0.918 0.362,0.472 0.543,1.081 0.543,1.828 0,0.577 -0.105,1.061 -0.313,1.454 -0.209,0.393 -0.475,0.701 -0.797,0.926 -0.323,0.224 -0.65,0.373 -0.983,0.444 -0.453,0.09 -1.108,0.135 -1.965,0.135 l -1.236,0 0,3.529 z m 1.887,-7.795 0,2.685 1.038,0 c 0.748,0 1.248,-0.049 1.5,-0.148 0.252,-0.099 0.45,-0.254 0.593,-0.465 0.143,-0.211 0.214,-0.457 0.214,-0.736 0,-0.344 -0.1,-0.628 -0.301,-0.852 C 17.827,7.58 17.573,7.44 17.265,7.384 17.04,7.342 16.585,7.32 15.901,7.32 Z"
         id="path78" />
      <path
         d="m 21.827,5.74 3.458,0 c 0.78,0 1.375,0.06 1.784,0.179 0.55,0.162 1.021,0.45 1.413,0.863 0.392,0.414 0.69,0.92 0.895,1.52 0.205,0.599 0.307,1.338 0.307,2.216 0,0.772 -0.096,1.437 -0.288,1.995 -0.234,0.683 -0.569,1.234 -1.003,1.657 -0.329,0.32 -0.772,0.569 -1.33,0.748 -0.417,0.133 -0.976,0.198 -1.675,0.198 l -3.561,0 z m 1.888,1.58 0,6.214 1.417,0 c 0.531,0 0.913,-0.03 1.148,-0.089 0.309,-0.077 0.563,-0.207 0.767,-0.39 0.203,-0.184 0.369,-0.486 0.497,-0.906 0.128,-0.42 0.192,-0.993 0.192,-1.719 0,-0.726 -0.064,-1.282 -0.192,-1.67 C 27.416,8.372 27.236,8.069 27.006,7.851 26.775,7.633 26.482,7.486 26.127,7.41 25.86,7.35 25.341,7.32 24.568,7.32 Z"
         id="path80" />
      <path
         d="m 31.279,15.115 0,-9.375 6.43,0 0,1.58 -4.542,0 0,2.225 3.929,0 0,1.58 -3.929,0 0,3.99 z"
         id="path82" />
    </g>
    <path
       style="fill:none"
       d="M 128,128 0,128 0,0 128,0 Z"
       id="path84" />
  </g>
  <g
     transform="matrix(0.96592583,0.25881905,-0.25881905,0.96592583,117.49488,15.373982)"
     id="g4286">
    <path
       style="fill:#ffffff"
       id="path4288"
       d="m 121.164,1.052 -114.328,0 0,125.896 80.701,0 33.627,-33.627 z" />
    <path
       style="fill:url(#linearGradient4332)"
       id="path4290"
       d="m 117.734,4.019 -107.468,0 -0.16,122.654 76.457,0 31.172,-31.252 0,-91.402 z" />
    <path
       style="fill:url(#linearGradient4334)"
       id="path4292"
       d="m 121.164,0.552 -114.828,0 0,126.896 81.408,0 33.92,-33.92 0,-92.976 z m -0.5,1 0,91.562 c -0.289,0.289 -33.045,33.045 -33.334,33.334 -0.41,0 -79.01,0 -79.994,0 0,-0.988 0,-123.909 0,-124.896 0.986,0 112.342,0 113.328,0 z" />
    <path
       style="fill:url(#linearGradient4336)"
       id="path4294"
       d="m 118.006,15.223 0,-11.283 -107.807,0 -0.096,65.34 c 9.975,4.547 21.151,7.096 32.954,7.096 37.345,0 68.398,-27.5 74.949,-61.153 z" />
    <path
       style="fill:none"
       id="path4296"
       d="m 72.158,83.212 0,-12.683 c -8.568,3.576 -17.923,5.638 -27.732,5.815 l 0,6.867 27.732,0 z" />
    <path
       style="fill:none"
       id="path4298"
       d="m 59.562,44.832 c -3.404,2.08 -6.689,6.015 -9.764,11.694 -3.102,5.73 -4.674,11.508 -4.674,17.173 0,3.169 0.682,4.568 1.254,5.186 0.738,0.798 1.577,1.138 2.804,1.138 3.207,0 6.845,-1.571 10.815,-4.67 4.09,-3.188 7.158,-7.917 9.12,-14.059 0,0 5.252,-16.324 6.19,-19.24 -1.517,-0.177 -2.854,-0.296 -3.85,-0.296 -4.554,0 -8.556,1.034 -11.895,3.074 z" />
    <path
       style="fill:none"
       id="path4300"
       d="m 42.301,76.366 c 0.279,1.989 0.896,3.499 1.878,4.559 1.307,1.411 2.944,2.098 5.004,2.098 3.891,0 8.151,-1.785 12.66,-5.305 1.867,-1.455 3.529,-3.201 5.002,-5.197 -7.485,2.487 -15.479,3.855 -23.787,3.855 -0.253,0 -0.504,-0.008 -0.757,-0.01 z" />
    <path
       style="fill:url(#linearGradient4338)"
       id="path4302"
       d="m 117.397,17.023 -107.384,0 0,-12.744 107.385,0 0,12.744 z" />
    <path
       style="opacity:0.1;fill:url(#radialGradient4340)"
       id="path4304"
       d="m 85.191,90.976 0,35.754 1.793,0 33.639,-33.639 0,-2.115 z" />
    <path
       style="fill:#ffffff"
       id="path4306"
       d="m 87.537,126.948 33.627,-33.627 -33.627,0 z" />
    <path
       style="fill:url(#linearGradient4342)"
       id="path4308"
       d="m 89.865,125.056 29.594,-29.592 -29.594,0 z" />
    <path
       style="fill:url(#linearGradient4344)"
       id="path4310"
       d="m 87.537,92.821 c -0.277,0 -0.5,0.223 -0.5,0.5 l 0,33.627 c 0,0.203 0.121,0.385 0.309,0.463 0.186,0.076 0.402,0.033 0.545,-0.109 l 33.627,-33.627 c 0.143,-0.145 0.186,-0.359 0.109,-0.545 -0.078,-0.188 -0.26,-0.309 -0.463,-0.309 z m 32.42,1 c -1.58,1.578 -30.342,30.34 -31.92,31.92 0,-2.209 0,-30.986 0,-31.92 z" />
    <g
       style="opacity:0.35"
       id="g4312">
      <path
         style="fill:none"
         id="path4314"
         d="m 60.326,29.604 c -8.263,7.357 27.625,72.342 36.217,55.654 9.664,-18.773 -86.067,20.969 -65.423,26.348 24.189,6.301 44.61,-95.719 29.206,-82.002 z" />
      <path
         style="opacity:0.35"
         id="path4316"
         d="m 58.713,28.594 c -6.105,6.004 0.619,18.865 3.332,24.984 4.958,11.187 11.438,22.806 20.215,31.464 2.578,2.545 5.771,5.248 9.609,5.158 3.725,-0.084 6.83,-3.348 7.814,-6.746 2.059,-7.121 -9.295,-5.322 -12.873,-4.686 -10.656,1.891 -21.09,5.992 -30.992,10.246 -9.019,3.877 -18.561,8.207 -26.104,14.617 -1.979,1.682 -4.291,4.051 -4.186,6.842 0.102,2.699 4.053,3.512 6.081,3.611 9.033,0.439 15.488,-8.787 19.479,-15.633 C 59.937,83.269 64.782,64.9 67.34,47.633 c 0.836,-5.661 1.93,-12.352 0.383,-17.991 -1.338,-4.888 -5.891,-3.731 -9.01,-1.048 -3.028,2.607 0.926,4.001 3.225,2.023 0.556,-0.48 -0.585,-0.188 -0.252,0.043 0.414,0.287 0.818,1.743 0.975,2.562 0.741,3.895 0.285,8.062 -0.142,11.963 -1.322,12.122 -4.39,24.218 -8.435,35.702 -3.197,9.078 -7.412,21.291 -15.53,27.248 -2.117,1.553 -5.042,2.209 -7.343,0.598 -0.438,-0.307 -0.364,-0.635 -0.245,-0.904 0.284,-0.641 1.314,-1.615 2.278,-2.434 7.445,-6.328 17.506,-10.311 26.423,-14 9.249,-3.83 19.304,-7.818 29.349,-8.809 1.711,-0.17 5.172,-0.361 5.504,1.084 0.127,0.549 -0.221,1.635 -0.689,2.141 -0.443,0.482 0.494,-0.055 -0.133,-0.041 -0.684,0.018 -1.447,-0.385 -2.037,-0.684 C 87.354,82.91 84.087,78.533 81.249,74.781 77.298,69.558 73.919,63.893 70.853,58.113 67.921,52.589 65.298,46.842 63.409,40.873 62.69,38.6 62.12,36.269 61.855,33.896 c -0.086,-0.774 -0.107,-1.545 -0.027,-2.318 0.051,-0.496 0.561,-1.406 0.11,-0.96 2.834,-2.789 -1.026,-4.185 -3.225,-2.024 z" />
    </g>
    <path
       style="fill:none"
       id="path4318"
       d="m 57.035,28.072 c -8.263,7.358 27.627,72.343 36.219,55.654 9.664,-18.771 -86.068,20.971 -65.422,26.348 24.187,6.3 44.609,-95.72 29.203,-82.002 z" />
    <path
       style="fill:#f8310e"
       id="path4320"
       d="m 55.423,27.061 c -6.105,6.004 0.619,18.867 3.332,24.986 4.958,11.185 11.437,22.804 20.214,31.464 2.58,2.543 5.771,5.246 9.609,5.156 3.727,-0.084 6.832,-3.348 7.814,-6.746 2.061,-7.119 -9.291,-5.32 -12.873,-4.686 -10.654,1.891 -21.089,5.993 -30.989,10.246 -9.02,3.877 -18.562,8.209 -26.104,14.617 -1.979,1.682 -4.291,4.051 -4.185,6.842 0.101,2.699 4.053,3.512 6.081,3.611 9.033,0.439 15.487,-8.785 19.479,-15.633 8.849,-15.18 13.695,-33.551 16.251,-50.818 0.838,-5.66 1.931,-12.352 0.384,-17.991 -1.34,-4.889 -5.892,-3.733 -9.011,-1.047 -3.029,2.607 0.925,4 3.224,2.021 0.556,-0.479 -0.586,-0.187 -0.251,0.044 0.413,0.286 0.819,1.745 0.974,2.562 0.741,3.896 0.285,8.063 -0.142,11.963 -1.322,12.124 -4.39,24.218 -8.434,35.704 -3.196,9.076 -7.412,21.289 -15.53,27.248 -2.116,1.553 -5.042,2.207 -7.343,0.596 -0.438,-0.305 -0.365,-0.633 -0.246,-0.904 0.283,-0.641 1.314,-1.613 2.278,-2.432 7.446,-6.328 17.506,-10.311 26.425,-14.002 9.25,-3.83 19.301,-7.818 29.35,-8.809 1.709,-0.17 5.17,-0.359 5.502,1.084 0.127,0.549 -0.221,1.635 -0.688,2.143 -0.445,0.48 0.492,-0.057 -0.135,-0.043 -0.684,0.018 -1.447,-0.385 -2.037,-0.684 C 84.067,81.377 80.798,77 77.96,73.25 74.009,68.025 70.63,62.36 67.564,56.582 64.634,51.057 62.008,45.311 60.121,39.342 59.402,37.067 58.831,34.737 58.567,32.364 58.481,31.592 58.46,30.819 58.54,30.046 c 0.052,-0.496 0.561,-1.405 0.11,-0.961 2.834,-2.787 -1.026,-4.183 -3.224,-2.021 z" />
    <g
       style="fill:#ffffff"
       id="g4322">
      <path
         id="path4324"
         d="m 13.097,15.115 0,-9.375 3.038,0 c 1.151,0 1.902,0.047 2.251,0.141 0.537,0.141 0.987,0.447 1.35,0.918 0.362,0.472 0.543,1.081 0.543,1.828 0,0.577 -0.105,1.061 -0.313,1.454 -0.209,0.393 -0.475,0.701 -0.797,0.926 -0.323,0.224 -0.65,0.373 -0.983,0.444 -0.453,0.09 -1.108,0.135 -1.965,0.135 l -1.236,0 0,3.529 z m 1.887,-7.795 0,2.685 1.038,0 c 0.748,0 1.248,-0.049 1.5,-0.148 0.252,-0.099 0.45,-0.254 0.593,-0.465 0.143,-0.211 0.214,-0.457 0.214,-0.736 0,-0.344 -0.1,-0.628 -0.301,-0.852 C 17.827,7.58 17.573,7.44 17.265,7.384 17.04,7.342 16.585,7.32 15.901,7.32 Z" />
      <path
         id="path4326"
         d="m 21.827,5.74 3.458,0 c 0.78,0 1.375,0.06 1.784,0.179 0.55,0.162 1.021,0.45 1.413,0.863 0.392,0.414 0.69,0.92 0.895,1.52 0.205,0.599 0.307,1.338 0.307,2.216 0,0.772 -0.096,1.437 -0.288,1.995 -0.234,0.683 -0.569,1.234 -1.003,1.657 -0.329,0.32 -0.772,0.569 -1.33,0.748 -0.417,0.133 -0.976,0.198 -1.675,0.198 l -3.561,0 z m 1.888,1.58 0,6.214 1.417,0 c 0.531,0 0.913,-0.03 1.148,-0.089 0.309,-0.077 0.563,-0.207 0.767,-0.39 0.203,-0.184 0.369,-0.486 0.497,-0.906 0.128,-0.42 0.192,-0.993 0.192,-1.719 0,-0.726 -0.064,-1.282 -0.192,-1.67 C 27.416,8.372 27.236,8.069 27.006,7.851 26.775,7.633 26.482,7.486 26.127,7.41 25.86,7.35 25.341,7.32 24.568,7.32 Z" />
      <path
         id="path4328"
         d="m 31.279,15.115 0,-9.375 6.43,0 0,1.58 -4.542,0 0,2.225 3.929,0 0,1.58 -3.929,0 0,3.99 z" />
    </g>
    <path
       style="fill:none"
       id="path4330"
       d="M 128,128 0,128 0,0 128,0 Z" />
  </g>
  <g
     id="g4356"
     transform="matrix(0.96592583,0.25881904,-0.25881904,0.96592583,188.82877,152.67254)">
    <path
       id="path4358"
       d="m 121.164,1.052 -114.328,0 0,125.896 80.701,0 33.627,-33.627 z"
       style="fill:#ffffff" />
    <path
       id="path4360"
       d="m 117.734,4.019 -107.468,0 -0.16,122.654 76.457,0 31.172,-31.252 0,-91.402 z"
       style="fill:url(#linearGradient4402)" />
    <path
       id="path4362"
       d="m 121.164,0.552 -114.828,0 0,126.896 81.408,0 33.92,-33.92 0,-92.976 z m -0.5,1 0,91.562 c -0.289,0.289 -33.045,33.045 -33.334,33.334 -0.41,0 -79.01,0 -79.994,0 0,-0.988 0,-123.909 0,-124.896 0.986,0 112.342,0 113.328,0 z"
       style="fill:url(#linearGradient4404)" />
    <path
       id="path4364"
       d="m 118.006,15.223 0,-11.283 -107.807,0 -0.096,65.34 c 9.975,4.547 21.151,7.096 32.954,7.096 37.345,0 68.398,-27.5 74.949,-61.153 z"
       style="fill:url(#linearGradient4406)" />
    <path
       id="path4366"
       d="m 72.158,83.212 0,-12.683 c -8.568,3.576 -17.923,5.638 -27.732,5.815 l 0,6.867 27.732,0 z"
       style="fill:none" />
    <path
       id="path4368"
       d="m 59.562,44.832 c -3.404,2.08 -6.689,6.015 -9.764,11.694 -3.102,5.73 -4.674,11.508 -4.674,17.173 0,3.169 0.682,4.568 1.254,5.186 0.738,0.798 1.577,1.138 2.804,1.138 3.207,0 6.845,-1.571 10.815,-4.67 4.09,-3.188 7.158,-7.917 9.12,-14.059 0,0 5.252,-16.324 6.19,-19.24 -1.517,-0.177 -2.854,-0.296 -3.85,-0.296 -4.554,0 -8.556,1.034 -11.895,3.074 z"
       style="fill:none" />
    <path
       id="path4370"
       d="m 42.301,76.366 c 0.279,1.989 0.896,3.499 1.878,4.559 1.307,1.411 2.944,2.098 5.004,2.098 3.891,0 8.151,-1.785 12.66,-5.305 1.867,-1.455 3.529,-3.201 5.002,-5.197 -7.485,2.487 -15.479,3.855 -23.787,3.855 -0.253,0 -0.504,-0.008 -0.757,-0.01 z"
       style="fill:none" />
    <path
       id="path4372"
       d="m 117.397,17.023 -107.384,0 0,-12.744 107.385,0 0,12.744 z"
       style="fill:url(#linearGradient4408)" />
    <path
       id="path4374"
       d="m 85.191,90.976 0,35.754 1.793,0 33.639,-33.639 0,-2.115 z"
       style="opacity:0.1;fill:url(#radialGradient4410)" />
    <path
       id="path4376"
       d="m 87.537,126.948 33.627,-33.627 -33.627,0 z"
       style="fill:#ffffff" />
    <path
       id="path4378"
       d="m 89.865,125.056 29.594,-29.592 -29.594,0 z"
       style="fill:url(#linearGradient4412)" />
    <path
       id="path4380"
       d="m 87.537,92.821 c -0.277,0 -0.5,0.223 -0.5,0.5 l 0,33.627 c 0,0.203 0.121,0.385 0.309,0.463 0.186,0.076 0.402,0.033 0.545,-0.109 l 33.627,-33.627 c 0.143,-0.145 0.186,-0.359 0.109,-0.545 -0.078,-0.188 -0.26,-0.309 -0.463,-0.309 z m 32.42,1 c -1.58,1.578 -30.342,30.34 -31.92,31.92 0,-2.209 0,-30.986 0,-31.92 z"
       style="fill:url(#linearGradient4414)" />
    <g
       id="g4382"
       style="opacity:0.35">
      <path
         id="path4384"
         d="m 60.326,29.604 c -8.263,7.357 27.625,72.342 36.217,55.654 9.664,-18.773 -86.067,20.969 -65.423,26.348 24.189,6.301 44.61,-95.719 29.206,-82.002 z"
         style="fill:none" />
      <path
         id="path4386"
         d="m 58.713,28.594 c -6.105,6.004 0.619,18.865 3.332,24.984 4.958,11.187 11.438,22.806 20.215,31.464 2.578,2.545 5.771,5.248 9.609,5.158 3.725,-0.084 6.83,-3.348 7.814,-6.746 2.059,-7.121 -9.295,-5.322 -12.873,-4.686 -10.656,1.891 -21.09,5.992 -30.992,10.246 -9.019,3.877 -18.561,8.207 -26.104,14.617 -1.979,1.682 -4.291,4.051 -4.186,6.842 0.102,2.699 4.053,3.512 6.081,3.611 9.033,0.439 15.488,-8.787 19.479,-15.633 C 59.937,83.269 64.782,64.9 67.34,47.633 c 0.836,-5.661 1.93,-12.352 0.383,-17.991 -1.338,-4.888 -5.891,-3.731 -9.01,-1.048 -3.028,2.607 0.926,4.001 3.225,2.023 0.556,-0.48 -0.585,-0.188 -0.252,0.043 0.414,0.287 0.818,1.743 0.975,2.562 0.741,3.895 0.285,8.062 -0.142,11.963 -1.322,12.122 -4.39,24.218 -8.435,35.702 -3.197,9.078 -7.412,21.291 -15.53,27.248 -2.117,1.553 -5.042,2.209 -7.343,0.598 -0.438,-0.307 -0.364,-0.635 -0.245,-0.904 0.284,-0.641 1.314,-1.615 2.278,-2.434 7.445,-6.328 17.506,-10.311 26.423,-14 9.249,-3.83 19.304,-7.818 29.349,-8.809 1.711,-0.17 5.172,-0.361 5.504,1.084 0.127,0.549 -0.221,1.635 -0.689,2.141 -0.443,0.482 0.494,-0.055 -0.133,-0.041 -0.684,0.018 -1.447,-0.385 -2.037,-0.684 C 87.354,82.91 84.087,78.533 81.249,74.781 77.298,69.558 73.919,63.893 70.853,58.113 67.921,52.589 65.298,46.842 63.409,40.873 62.69,38.6 62.12,36.269 61.855,33.896 c -0.086,-0.774 -0.107,-1.545 -0.027,-2.318 0.051,-0.496 0.561,-1.406 0.11,-0.96 2.834,-2.789 -1.026,-4.185 -3.225,-2.024 z"
         style="opacity:0.35" />
    </g>
    <path
       id="path4388"
       d="m 57.035,28.072 c -8.263,7.358 27.627,72.343 36.219,55.654 9.664,-18.771 -86.068,20.971 -65.422,26.348 24.187,6.3 44.609,-95.72 29.203,-82.002 z"
       style="fill:none" />
    <path
       id="path4390"
       d="m 55.423,27.061 c -6.105,6.004 0.619,18.867 3.332,24.986 4.958,11.185 11.437,22.804 20.214,31.464 2.58,2.543 5.771,5.246 9.609,5.156 3.727,-0.084 6.832,-3.348 7.814,-6.746 2.061,-7.119 -9.291,-5.32 -12.873,-4.686 -10.654,1.891 -21.089,5.993 -30.989,10.246 -9.02,3.877 -18.562,8.209 -26.104,14.617 -1.979,1.682 -4.291,4.051 -4.185,6.842 0.101,2.699 4.053,3.512 6.081,3.611 9.033,0.439 15.487,-8.785 19.479,-15.633 8.849,-15.18 13.695,-33.551 16.251,-50.818 0.838,-5.66 1.931,-12.352 0.384,-17.991 -1.34,-4.889 -5.892,-3.733 -9.011,-1.047 -3.029,2.607 0.925,4 3.224,2.021 0.556,-0.479 -0.586,-0.187 -0.251,0.044 0.413,0.286 0.819,1.745 0.974,2.562 0.741,3.896 0.285,8.063 -0.142,11.963 -1.322,12.124 -4.39,24.218 -8.434,35.704 -3.196,9.076 -7.412,21.289 -15.53,27.248 -2.116,1.553 -5.042,2.207 -7.343,0.596 -0.438,-0.305 -0.365,-0.633 -0.246,-0.904 0.283,-0.641 1.314,-1.613 2.278,-2.432 7.446,-6.328 17.506,-10.311 26.425,-14.002 9.25,-3.83 19.301,-7.818 29.35,-8.809 1.709,-0.17 5.17,-0.359 5.502,1.084 0.127,0.549 -0.221,1.635 -0.688,2.143 -0.445,0.48 0.492,-0.057 -0.135,-0.043 -0.684,0.018 -1.447,-0.385 -2.037,-0.684 C 84.067,81.377 80.798,77 77.96,73.25 74.009,68.025 70.63,62.36 67.564,56.582 64.634,51.057 62.008,45.311 60.121,39.342 59.402,37.067 58.831,34.737 58.567,32.364 58.481,31.592 58.46,30.819 58.54,30.046 c 0.052,-0.496 0.561,-1.405 0.11,-0.961 2.834,-2.787 -1.026,-4.183 -3.224,-2.021 z"
       style="fill:#f8310e" />
    <g
       id="g4392"
       style="fill:#ffffff">
      <path
         id="path4394"
         d="m 13.097,15.115 0,-9.375 3.038,0 c 1.151,0 1.902,0.047 2.251,0.141 0.537,0.141 0.987,0.447 1.35,0.918 0.362,0.472 0.543,1.081 0.543,1.828 0,0.577 -0.105,1.061 -0.313,1.454 -0.209,0.393 -0.475,0.701 -0.797,0.926 -0.323,0.224 -0.65,0.373 -0.983,0.444 -0.453,0.09 -1.108,0.135 -1.965,0.135 l -1.236,0 0,3.529 z m 1.887,-7.795 0,2.685 1.038,0 c 0.748,0 1.248,-0.049 1.5,-0.148 0.252,-0.099 0.45,-0.254 0.593,-0.465 0.143,-0.211 0.214,-0.457 0.214,-0.736 0,-0.344 -0.1,-0.628 -0.301,-0.852 C 17.827,7.58 17.573,7.44 17.265,7.384 17.04,7.342 16.585,7.32 15.901,7.32 Z" />
      <path
         id="path4396"
         d="m 21.827,5.74 3.458,0 c 0.78,0 1.375,0.06 1.784,0.179 0.55,0.162 1.021,0.45 1.413,0.863 0.392,0.414 0.69,0.92 0.895,1.52 0.205,0.599 0.307,1.338 0.307,2.216 0,0.772 -0.096,1.437 -0.288,1.995 -0.234,0.683 -0.569,1.234 -1.003,1.657 -0.329,0.32 -0.772,0.569 -1.33,0.748 -0.417,0.133 -0.976,0.198 -1.675,0.198 l -3.561,0 z m 1.888,1.58 0,6.214 1.417,0 c 0.531,0 0.913,-0.03 1.148,-0.089 0.309,-0.077 0.563,-0.207 0.767,-0.39 0.203,-0.184 0.369,-0.486 0.497,-0.906 0.128,-0.42 0.192,-0.993 0.192,-1.719 0,-0.726 -0.064,-1.282 -0.192,-1.67 C 27.416,8.372 27.236,8.069 27.006,7.851 26.775,7.633 26.482,7.486 26.127,7.41 25.86,7.35 25.341,7.32 24.568,7.32 Z" />
      <path
         id="path4398"
         d="m 31.279,15.115 0,-9.375 6.43,0 0,1.58 -4.542,0 0,2.225 3.929,0 0,1.58 -3.929,0 0,3.99 z" />
    </g>
    <path
       id="path4400"
       d="M 128,128 0,128 0,0 128,0 Z"
       style="fill:none" />
  </g>
  <g
     id="flowRoot4416"
     style="font-style:normal;font-weight:normal;font-size:40px;line-height:125%;font-family:sans-serif;letter-spacing:0px;word-spacing:0px;fill:#000000;fill-opacity:1;stroke:none;stroke-width:1px;stroke-linecap:butt;stroke-linejoin:miter;stroke-opacity:1"
     transform="matrix(0.36620841,-0.63429157,0.63429157,0.36620841,138.14232,115.19588)">
    <path
       id="path4511"
       style="font-size:50px"
       d="m -106.31152,-135.51117 4.93164,0 0,32.2998 17.749021,0 0,4.150391 -22.680661,0 0,-36.450191 z" />
    <path
       id="path4513"
       style="font-size:50px"
       d="m -78.479492,-135.51117 23.046875,0 0,4.15039 -18.115235,0 0,10.79101 17.358399,0 0,4.15039 -17.358399,0 0,13.20801 18.554688,0 0,4.150391 -23.486328,0 0,-36.450191 z" />
    <path
       id="path4515"
       style="font-size:50px"
       d="m -37.439453,-99.060979 -13.916016,-36.450191 5.151367,0 11.547852,30.68847 11.572266,-30.68847 5.126953,0 -13.891602,36.450191 -5.59082,0 z" />
    <path
       id="path4517"
       style="font-size:50px"
       d="m -12.65918,-135.51117 23.046875,0 0,4.15039 -18.1152341,0 0,10.79101 17.3583985,0 0,4.15039 -17.3583985,0 0,13.20801 18.5546871,0 0,4.150391 -23.486328,0 0,-36.450191 z" />
    <path
       id="path4519"
       style="font-size:50px"
       d="m 18.981445,-135.51117 4.931641,0 0,32.2998 17.749023,0 0,4.150391 -22.680664,0 0,-36.450191 z" />
    <path
       id="path4521"
       style="font-size:50px"
       d="m 68.664062,-134.31489 0,4.80957 q -2.807617,-1.34277 -5.297851,-2.00195 -2.490234,-0.65918 -4.80957,-0.65918 -4.028321,0 -6.225586,1.5625 -2.172852,1.5625 -2.172852,4.44336 0,2.41699 1.44043,3.66211 1.464844,1.2207 5.517578,1.97754 l 2.978516,0.61035 q 5.517578,1.04981 8.129882,3.71094 2.636719,2.63672 2.636719,7.08008 0,5.29785 -3.564453,8.03222 -3.540039,2.734378 -10.400391,2.734378 -2.58789,0 -5.517578,-0.585937 -2.905273,-0.585938 -6.030273,-1.733401 l 0,-5.07812 q 3.002929,1.68457 5.883789,2.53906 2.880859,0.85449 5.664062,0.85449 4.223633,0 6.518555,-1.66015 2.294922,-1.66016 2.294922,-4.73633 0,-2.68555 -1.660156,-4.19922 -1.635743,-1.51367 -5.395508,-2.27051 l -3.00293,-0.58594 q -5.517578,-1.09863 -7.983398,-3.44238 -2.465821,-2.34375 -2.465821,-6.51855 0,-4.83399 3.393555,-7.61719 3.417969,-2.7832 9.399414,-2.7832 2.563477,0 5.22461,0.46386 2.661132,0.46387 5.444335,1.3916 z" />
  </g>
  <g
     id="flowRoot4424"
     style="font-style:normal;font-weight:normal;font-size:40px;line-height:125%;font-family:sans-serif;letter-spacing:0px;word-spacing:0px;fill:#000000;fill-opacity:1;stroke:none;stroke-width:1px;stroke-linecap:butt;stroke-linejoin:miter;stroke-opacity:1"
     transform="matrix(0.36620841,0.63429157,-0.63429157,0.36620841,192.08367,185.21725)">
    <path
       id="path4524"
       style="font-size:50px"
       d="m -96.912109,-99.060979 -13.916021,-36.450191 5.15137,0 11.547854,30.68847 11.572265,-30.68847 5.126954,0 -13.891602,36.450191 -5.59082,0 z" />
    <path
       id="path4526"
       style="font-size:50px"
       d="m -72.131836,-135.51117 23.046875,0 0,4.15039 -18.115234,0 0,10.79101 17.358398,0 0,4.15039 -17.358398,0 0,13.20801 18.554687,0 0,4.150391 -23.486328,0 0,-36.450191 z" />
    <path
       id="path4528"
       style="font-size:50px"
       d="m -23.206055,-116.15082 q 1.586914,0.53711 3.076172,2.29492 1.513672,1.75781 3.027344,4.83398 l 5.004883,9.960941 -5.297852,0 -4.663086,-9.350591 q -1.80664,-3.6621 -3.515625,-4.85839 -1.68457,-1.19629 -4.614258,-1.19629 l -5.371093,0 0,15.405271 -4.931641,0 0,-36.450191 11.132813,0 q 6.25,0 9.326171,2.6123 3.076172,2.6123 3.076172,7.88574 0,3.44238 -1.611328,5.71289 -1.586914,2.27051 -4.638672,3.14942 z m -12.353515,-15.30762 0,12.93945 6.201172,0 q 3.564453,0 5.371093,-1.63574 1.831055,-1.66016 1.831055,-4.8584 0,-3.19824 -1.831055,-4.80957 -1.80664,-1.63574 -5.371093,-1.63574 l -6.201172,0 z" />
    <path
       id="path4530"
       style="font-size:50px"
       d="m 16.125,-134.31489 0,4.80957 q -2.807617,-1.34277 -5.297852,-2.00195 -2.4902339,-0.65918 -4.8095699,-0.65918 -4.0283203,0 -6.22558591,1.5625 -2.17285159,1.5625 -2.17285159,4.44336 0,2.41699 1.44042971,3.66211 1.46484375,1.2207 5.51757809,1.97754 l 2.9785157,0.61035 q 5.5175779,1.04981 8.1298829,3.71094 2.636719,2.63672 2.636719,7.08008 0,5.29785 -3.564453,8.03222 -3.54004,2.734378 -10.4003911,2.734378 -2.5878907,0 -5.5175781,-0.585937 -2.9052735,-0.585938 -6.0302735,-1.733401 l 0,-5.07812 q 3.0029297,1.68457 5.8837891,2.53906 2.8808593,0.85449 5.6640625,0.85449 4.2236328,0 6.5185551,-1.66015 2.294921,-1.66016 2.294921,-4.73633 0,-2.68555 -1.660156,-4.19922 -1.635742,-1.51367 -5.3955076,-2.27051 l -3.0029297,-0.58594 q -5.5175781,-1.09863 -7.9833984,-3.44238 -2.4658204,-2.34375 -2.4658204,-6.51855 0,-4.83399 3.3935547,-7.61719 3.41796878,-2.7832 9.3994141,-2.7832 2.5634766,0 5.2246093,0.46386 2.661133,0.46387 5.444336,1.3916 z" />
    <path
       id="path4532"
       style="font-size:50px"
       d="m 26.012695,-135.51117 4.931641,0 0,36.450191 -4.931641,0 0,-36.450191 z" />
    <path
       id="path4534"
       style="font-size:50px"
       d="m 55.553711,-132.16645 q -5.371094,0 -8.544922,4.00391 -3.149414,4.0039 -3.149414,10.91308 0,6.88477 3.149414,10.88868 3.173828,4.0039 8.544922,4.0039 5.371094,0 8.496094,-4.0039 3.149414,-4.00391 3.149414,-10.88868 0,-6.90918 -3.149414,-10.91308 -3.125,-4.00391 -8.496094,-4.00391 z m 0,-4.0039 q 7.666016,0 12.255859,5.15136 4.589844,5.12696 4.589844,13.76953 0,8.61817 -4.589844,13.76954 -4.589843,5.126948 -12.255859,5.126948 -7.69043,0 -12.304688,-5.126948 -4.589843,-5.12696 -4.589843,-13.76954 0,-8.64257 4.589843,-13.76953 4.614258,-5.15136 12.304688,-5.15136 z" />
    <path
       id="path4536"
       style="font-size:50px"
       d="m 80.114258,-135.51117 6.640625,0 16.162107,30.49316 0,-30.49316 4.78516,0 0,36.450191 -6.64063,0 -16.162106,-30.493161 0,30.493161 -4.785156,0 0,-36.450191 z" />
    <path
       id="path4538"
       style="font-size:50px"
       d="m 139.36719,-134.31489 0,4.80957 q -2.80762,-1.34277 -5.29785,-2.00195 -2.49024,-0.65918 -4.80957,-0.65918 -4.02832,0 -6.22559,1.5625 -2.17285,1.5625 -2.17285,4.44336 0,2.41699 1.44043,3.66211 1.46484,1.2207 5.51758,1.97754 l 2.97851,0.61035 q 5.51758,1.04981 8.12988,3.71094 2.63672,2.63672 2.63672,7.08008 0,5.29785 -3.56445,8.03222 -3.54004,2.734378 -10.40039,2.734378 -2.58789,0 -5.51758,-0.585937 -2.90527,-0.585938 -6.03027,-1.733401 l 0,-5.07812 q 3.00293,1.68457 5.88379,2.53906 2.88086,0.85449 5.66406,0.85449 4.22363,0 6.51855,-1.66015 2.29493,-1.66016 2.29493,-4.73633 0,-2.68555 -1.66016,-4.19922 -1.63574,-1.51367 -5.39551,-2.27051 l -3.00293,-0.58594 q -5.51758,-1.09863 -7.9834,-3.44238 -2.46582,-2.34375 -2.46582,-6.51855 0,-4.83399 3.39356,-7.61719 3.41797,-2.7832 9.39941,-2.7832 2.56348,0 5.22461,0.46386 2.66113,0.46387 5.44434,1.3916 z" />
  </g>
  <g
     id="flowRoot4432"
     style="font-style:normal;font-weight:normal;font-size:40px;line-height:125%;font-family:sans-serif;letter-spacing:0px;word-spacing:0px;fill:#000000;fill-opacity:1;stroke:none;stroke-width:1px;stroke-linecap:butt;stroke-linejoin:miter;stroke-opacity:1"
     transform="matrix(0.5178969,-0.5178969,0.5178969,0.5178969,126.26339,203.49336)">
    <path
       id="path4541"
       style="font-size:50px"
       d="m -101.67285,-105.26215 4.956053,0 0,6.201171 -4.956053,0 0,-6.201171 z m 4.809569,-3.58887 -4.663089,0 0,-3.75976 q 0,-2.46582 0.6836,-4.05274 0.68359,-1.58691 2.880856,-3.68652 l 2.197266,-2.17285 q 1.391601,-1.29395 2.001953,-2.44141 0.634765,-1.14746 0.634765,-2.34375 0,-2.17285 -1.611328,-3.51562 -1.586914,-1.34278 -4.223633,-1.34278 -1.928709,0 -4.125979,0.85449 -2.17285,0.8545 -4.54101,2.49024 l 0,-4.58985 q 2.29492,-1.3916 4.63867,-2.07519 2.36816,-0.68359 4.882812,-0.68359 4.492187,0 7.202148,2.36816 2.734375,2.36816 2.734375,6.25 0,1.85547 -0.878906,3.54004 -0.878906,1.66015 -3.076172,3.75976 l -2.148438,2.09961 q -1.147461,1.14746 -1.635742,1.80664 -0.463867,0.63477 -0.659179,1.24512 -0.146485,0.5127 -0.219727,1.24512 -0.07324,0.73242 -0.07324,2.00195 l 0,3.00293 z" />
  </g>
  <g
     id="flowRoot4440"
     style="font-style:normal;font-weight:normal;font-size:40px;line-height:125%;font-family:sans-serif;letter-spacing:0px;word-spacing:0px;fill:#000000;fill-opacity:1;stroke:none;stroke-width:1px;stroke-linecap:butt;stroke-linejoin:miter;stroke-opacity:1"
     transform="matrix(0.63429157,0.36620841,-0.36620841,0.63429157,164.83621,125.78668)">
    <path
       id="path4544"
       style="font-size:50px"
       d="m -101.67285,-105.26215 4.956053,0 0,6.201171 -4.956053,0 0,-6.201171 z m 4.809569,-3.58887 -4.663089,0 0,-3.75976 q 0,-2.46582 0.6836,-4.05274 0.68359,-1.58691 2.880856,-3.68652 l 2.197266,-2.17285 q 1.391601,-1.29395 2.001953,-2.44141 0.634765,-1.14746 0.634765,-2.34375 0,-2.17285 -1.611328,-3.51562 -1.586914,-1.34278 -4.223633,-1.34278 -1.928709,0 -4.125979,0.85449 -2.17285,0.8545 -4.54101,2.49024 l 0,-4.58985 q 2.29492,-1.3916 4.63867,-2.07519 2.36816,-0.68359 4.882812,-0.68359 4.492187,0 7.202148,2.36816 2.734375,2.36816 2.734375,6.25 0,1.85547 -0.878906,3.54004 -0.878906,1.66015 -3.076172,3.75976 l -2.148438,2.09961 q -1.147461,1.14746 -1.635742,1.80664 -0.463867,0.63477 -0.659179,1.24512 -0.146485,0.5127 -0.219727,1.24512 -0.07324,0.73242 -0.07324,2.00195 l 0,3.00293 z" />
  </g>
  <g
     id="flowRoot4448"
     style="font-style:normal;font-weight:normal;font-size:40px;line-height:125%;font-family:sans-serif;letter-spacing:0px;word-spacing:0px;fill:#000000;fill-opacity:1;stroke:none;stroke-width:1px;stroke-linecap:butt;stroke-linejoin:miter;stroke-opacity:1"
     transform="matrix(0.63429157,0.36620841,-0.36620841,0.63429157,240.77229,264.6193)">
    <path
       id="path4547"
       style="font-size:50px"
       d="m -101.67285,-105.26215 4.956053,0 0,6.201171 -4.956053,0 0,-6.201171 z m 4.809569,-3.58887 -4.663089,0 0,-3.75976 q 0,-2.46582 0.6836,-4.05274 0.68359,-1.58691 2.880856,-3.68652 l 2.197266,-2.17285 q 1.391601,-1.29395 2.001953,-2.44141 0.634765,-1.14746 0.634765,-2.34375 0,-2.17285 -1.611328,-3.51562 -1.586914,-1.34278 -4.223633,-1.34278 -1.928709,0 -4.125979,0.85449 -2.17285,0.8545 -4.54101,2.49024 l 0,-4.58985 q 2.29492,-1.3916 4.63867,-2.07519 2.36816,-0.68359 4.882812,-0.68359 4.492187,0 7.202148,2.36816 2.734375,2.36816 2.734375,6.25 0,1.85547 -0.878906,3.54004 -0.878906,1.66015 -3.076172,3.75976 l -2.148438,2.09961 q -1.147461,1.14746 -1.635742,1.80664 -0.463867,0.63477 -0.659179,1.24512 -0.146485,0.5127 -0.219727,1.24512 -0.07324,0.73242 -0.07324,2.00195 l 0,3.00293 z" />
  </g>
  <g
     id="flowRoot4456"
     style="font-style:normal;font-weight:normal;font-size:40px;line-height:125%;font-family:sans-serif;letter-spacing:0px;word-spacing:0px;fill:#000000;fill-opacity:1;stroke:none;stroke-width:1px;stroke-linecap:butt;stroke-linejoin:miter;stroke-opacity:1"
     transform="matrix(0.63429157,0.36620841,-0.36620841,0.63429157,304.43587,175.6437)">
    <path
       id="path4550"
       style="font-size:68.26713562px"
       d="m -98.185327,-89.319952 6.766713,0 0,8.466725 -6.766713,0 0,-8.466725 z m 6.566712,-4.900034 -6.366711,0 0,-5.133368 q 0,-3.366686 0.93334,-5.533376 0.93334,-2.16668 3.93336,-5.03336 l 3.000021,-2.96669 q 1.900013,-1.76668 2.733352,-3.33336 0.866673,-1.56667 0.866673,-3.20002 0,-2.96669 -2.200015,-4.80003 -2.166682,-1.83335 -5.766707,-1.83335 -2.633351,0 -5.633368,1.16668 -2.96669,1.16667 -6.20005,3.40002 l 0,-6.26671 q 3.13336,-1.90001 6.33338,-2.83335 3.233356,-0.93334 6.666713,-0.93334 6.133375,0 9.833401,3.23335 3.733359,3.23336 3.733359,8.5334 0,2.53335 -1.200008,4.83336 -1.200009,2.26668 -4.200029,5.13337 l -2.933354,2.86669 q -1.566677,1.56667 -2.233348,2.46668 -0.633338,0.86667 -0.900007,1.70001 -0.200001,0.70001 -0.300002,1.70001 -0.1,1.00001 -0.1,2.733356 l 0,4.100028 z" />
  </g>
  <g
     id="flowRoot4464"
     style="font-style:normal;font-weight:normal;font-size:40px;line-height:125%;font-family:sans-serif;letter-spacing:0px;word-spacing:0px;fill:#000000;fill-opacity:1;stroke:none;stroke-width:1px;stroke-linecap:butt;stroke-linejoin:miter;stroke-opacity:1"
     transform="matrix(0.70746032,-0.18956342,0.18956342,0.70746032,157.79113,200.73965)">
    <path
       id="path4553"
       style="font-size:68.26713562px"
       d="m -98.185327,-89.319952 6.766713,0 0,8.466725 -6.766713,0 0,-8.466725 z m 6.566712,-4.900034 -6.366711,0 0,-5.133368 q 0,-3.366686 0.93334,-5.533376 0.93334,-2.16668 3.93336,-5.03336 l 3.000021,-2.96669 q 1.900013,-1.76668 2.733352,-3.33336 0.866673,-1.56667 0.866673,-3.20002 0,-2.96669 -2.200015,-4.80003 -2.166682,-1.83335 -5.766707,-1.83335 -2.633351,0 -5.633368,1.16668 -2.96669,1.16667 -6.20005,3.40002 l 0,-6.26671 q 3.13336,-1.90001 6.33338,-2.83335 3.233356,-0.93334 6.666713,-0.93334 6.133375,0 9.833401,3.23335 3.733359,3.23336 3.733359,8.5334 0,2.53335 -1.200008,4.83336 -1.200009,2.26668 -4.200029,5.13337 l -2.933354,2.86669 q -1.566677,1.56667 -2.233348,2.46668 -0.633338,0.86667 -0.900007,1.70001 -0.200001,0.70001 -0.300002,1.70001 -0.1,1.00001 -0.1,2.733356 l 0,4.100028 z" />
  </g>
</svg>
